<?xml version="1.0" encoding="iso-8859-1"?>
<!-- Generator: Adobe Illustrator 19.0.0, SVG Export Plug-In . SVG Version: 6.00 Build 0)  -->
<svg version="1.1" id="Layer_1" xmlns="http://www.w3.org/2000/svg" xmlns:xlink="http://www.w3.org/1999/xlink" x="0px" y="0px"
	 viewBox="0 0 512 512" style="enable-background:new 0 0 512 512;" xml:space="preserve">
<g>
	<g>
		<rect x="33.391" y="456.348" width="445.217" height="33.391"/>
	</g>
</g>
<g>
	<g>
		<rect x="222.609" y="356.174" width="33.391" height="66.783"/>
	</g>
</g>
<g>
	<g>
		<polygon points="422.957,55.652 422.957,22.261 389.565,22.261 389.565,55.652 322.783,55.652 322.783,22.261 289.391,22.261 
			289.391,55.652 222.609,55.652 222.609,22.261 189.217,22.261 189.217,55.652 122.435,55.652 122.435,22.261 89.044,22.261 
			89.044,55.652 0,55.652 0,89.044 0,456.348 33.391,456.348 33.391,89.044 89.044,89.044 89.044,122.435 122.435,122.435 
			122.435,89.044 189.217,89.044 189.217,122.435 222.609,122.435 222.609,89.044 289.391,89.044 289.391,122.435 322.783,122.435 
			322.783,89.044 389.565,89.044 389.565,122.435 422.957,122.435 422.957,89.044 478.609,89.044 478.609,456.348 512,456.348 
			512,89.044 512,55.652 		"/>
	</g>
</g>
<g>
	<g>
		<polygon points="155.826,166.957 155.826,200.348 322.783,200.348 322.783,256 356.174,256 356.174,166.957 		"/>
	</g>
</g>
<g>
	<g>
		<rect x="256" y="289.391" width="33.391" height="66.783"/>
	</g>
</g>
<g>
	<g>
		<rect x="289.391" y="256" width="33.391" height="33.391"/>
	</g>
</g>
<g>
</g>
<g>
</g>
<g>
</g>
<g>
</g>
<g>
</g>
<g>
</g>
<g>
</g>
<g>
</g>
<g>
</g>
<g>
</g>
<g>
</g>
<g>
</g>
<g>
</g>
<g>
</g>
<g>
</g>
</svg>
