<?xml version="1.0" encoding="iso-8859-1"?>
<!-- Generator: Adobe Illustrator 19.0.0, SVG Export Plug-In . SVG Version: 6.00 Build 0)  -->
<svg version="1.1" id="Layer_1" xmlns="http://www.w3.org/2000/svg" xmlns:xlink="http://www.w3.org/1999/xlink" x="0px" y="0px"
	 viewBox="0 0 512 512" style="enable-background:new 0 0 512 512;" xml:space="preserve">
<g>
	<g>
		<rect x="33.391" y="72.348" width="33.391" height="33.391"/>
	</g>
</g>
<g>
	<g>
		<rect x="445.217" y="72.348" width="33.391" height="33.391"/>
	</g>
</g>
<g>
	<g>
		<rect x="278.261" y="72.348" width="33.391" height="33.391"/>
	</g>
</g>
<g>
	<g>
		<rect x="33.391" y="306.087" width="33.391" height="33.391"/>
	</g>
</g>
<g>
	<g>
		<rect x="445.217" y="306.087" width="33.391" height="33.391"/>
	</g>
</g>
<g>
	<g>
		<rect x="166.957" y="406.261" width="66.783" height="33.391"/>
	</g>
</g>
<g>
	<g>
		<rect x="278.261" y="406.261" width="66.783" height="33.391"/>
	</g>
</g>
<g>
	<g>
		<rect x="200.348" y="72.348" width="33.391" height="33.391"/>
	</g>
</g>
<g>
	<g>
		<rect x="233.739" y="105.739" width="44.522" height="33.391"/>
	</g>
</g>
<g>
	<g>
		<rect x="345.043" y="372.87" width="66.783" height="33.391"/>
	</g>
</g>
<g>
	<g>
		<rect x="100.174" y="372.87" width="66.783" height="33.391"/>
	</g>
</g>
<g>
	<g>
		<rect x="66.783" y="339.478" width="33.391" height="33.391"/>
	</g>
</g>
<g>
	<g>
		<rect x="411.826" y="339.478" width="33.391" height="33.391"/>
	</g>
</g>
<g>
	<g>
		<rect x="233.739" y="439.652" width="44.522" height="33.391"/>
	</g>
</g>
<g>
	<g>
		<rect x="66.783" y="38.957" width="133.565" height="33.391"/>
	</g>
</g>
<g>
	<g>
		<rect x="311.652" y="38.957" width="133.565" height="33.391"/>
	</g>
</g>
<g>
	<g>
		<rect y="105.739" width="33.391" height="200.348"/>
	</g>
</g>
<g>
	<g>
		<rect x="478.609" y="105.739" width="33.391" height="200.348"/>
	</g>
</g>
<g>
</g>
<g>
</g>
<g>
</g>
<g>
</g>
<g>
</g>
<g>
</g>
<g>
</g>
<g>
</g>
<g>
</g>
<g>
</g>
<g>
</g>
<g>
</g>
<g>
</g>
<g>
</g>
<g>
</g>
</svg>
