<?xml version="1.0" encoding="iso-8859-1"?>
<!-- Generator: Adobe Illustrator 19.0.0, SVG Export Plug-In . SVG Version: 6.00 Build 0)  -->
<svg version="1.1" id="Layer_1" xmlns="http://www.w3.org/2000/svg" xmlns:xlink="http://www.w3.org/1999/xlink" x="0px" y="0px"
	 viewBox="0 0 512 512" style="enable-background:new 0 0 512 512;" xml:space="preserve">
<g>
	<g>
		<polygon points="122.435,211.478 122.435,178.087 33.391,178.087 33.391,211.478 0,211.478 0,300.522 33.391,300.522 
			33.391,333.913 122.435,333.913 122.435,300.522 155.826,300.522 155.826,211.478 		"/>
	</g>
</g>
<g>
	<g>
		<polygon points="478.609,33.391 478.609,0 400.696,0 400.696,33.391 367.304,33.391 367.304,77.913 322.783,77.913 
			322.783,111.304 400.696,111.304 400.696,144.696 478.609,144.696 478.609,111.304 512,111.304 512,33.391 		"/>
	</g>
</g>
<g>
	<g>
		<rect x="155.826" y="178.087" width="55.652" height="33.391"/>
	</g>
</g>
<g>
	<g>
		<rect x="155.826" y="300.522" width="55.652" height="33.391"/>
	</g>
</g>
<g>
	<g>
		<rect x="211.478" y="144.696" width="55.652" height="33.391"/>
	</g>
</g>
<g>
	<g>
		<rect x="211.478" y="333.913" width="55.652" height="33.391"/>
	</g>
</g>
<g>
	<g>
		<rect x="267.13" y="111.304" width="55.652" height="33.391"/>
	</g>
</g>
<g>
	<g>
		<rect x="267.13" y="367.304" width="55.652" height="33.391"/>
	</g>
</g>
<g>
	<g>
		<polygon points="478.609,400.696 478.609,367.304 400.696,367.304 400.696,400.696 322.783,400.696 322.783,434.087 
			367.304,434.087 367.304,478.609 400.696,478.609 400.696,512 478.609,512 478.609,478.609 512,478.609 512,400.696 		"/>
	</g>
</g>
<g>
</g>
<g>
</g>
<g>
</g>
<g>
</g>
<g>
</g>
<g>
</g>
<g>
</g>
<g>
</g>
<g>
</g>
<g>
</g>
<g>
</g>
<g>
</g>
<g>
</g>
<g>
</g>
<g>
</g>
</svg>
